<?xml version="1.0" encoding="UTF-8" standalone="no"?>
<!DOCTYPE svg PUBLIC "-//W3C//DTD SVG 1.1//EN"
 "http://www.w3.org/Graphics/SVG/1.1/DTD/svg11.dtd">
<!-- Generated by graphviz version 2.47.0 (20210316.0004)
 -->
<!-- Title: dependencies Pages: 1 -->
<svg width="901pt" height="284pt"
 viewBox="0.00 0.00 901.00 284.00" xmlns="http://www.w3.org/2000/svg" xmlns:xlink="http://www.w3.org/1999/xlink">
<g id="graph0" class="graph" transform="scale(1 1) rotate(0) translate(4 280)">
<title>dependencies</title>
<polygon fill="white" stroke="transparent" points="-4,4 -4,-280 897,-280 897,4 -4,4"/>
<text text-anchor="start" x="425.51" y="-42.4" font-family="sans-serif" font-weight="bold" font-size="14.00">Legend</text>
<polygon fill="#ffffb3" stroke="transparent" points="212.5,-10 212.5,-30 232.5,-30 232.5,-10 212.5,-10"/>
<text text-anchor="start" x="236.13" y="-15.4" font-family="sans-serif" font-size="14.00"> &#160;Declarations</text>
<polygon fill="#8dd3c7" stroke="transparent" points="325.5,-10 325.5,-30 345.5,-30 345.5,-10 325.5,-10"/>
<text text-anchor="start" x="349.23" y="-15.4" font-family="sans-serif" font-size="14.00"> &#160;Module</text>
<polygon fill="#80b1d3" stroke="transparent" points="411.5,-10 411.5,-30 431.5,-30 431.5,-10 411.5,-10"/>
<text text-anchor="start" x="435.28" y="-15.4" font-family="sans-serif" font-size="14.00"> &#160;Bootstrap</text>
<polygon fill="#fdb462" stroke="transparent" points="508.5,-10 508.5,-30 528.5,-30 528.5,-10 508.5,-10"/>
<text text-anchor="start" x="532.17" y="-15.4" font-family="sans-serif" font-size="14.00"> &#160;Providers</text>
<polygon fill="#fb8072" stroke="transparent" points="604.5,-10 604.5,-30 624.5,-30 624.5,-10 604.5,-10"/>
<text text-anchor="start" x="628.23" y="-15.4" font-family="sans-serif" font-size="14.00"> &#160;Exports</text>
<g id="clust1" class="cluster">
<title>cluster_MaterialModule</title>
<polygon fill="none" stroke="black" stroke-dasharray="1,5" points="8,-70 8,-268 885,-268 885,-70 8,-70"/>
</g>
<g id="clust3" class="cluster">
<title>cluster_MaterialModule_imports</title>
<polygon fill="none" stroke="black" points="453,-78 453,-130 533,-130 533,-78 453,-78"/>
</g>
<g id="clust4" class="cluster">
<title>cluster_MaterialModule_exports</title>
<polygon fill="none" stroke="black" points="16,-208 16,-260 877,-260 877,-208 16,-208"/>
</g>
<!-- Material -->
<g id="node1" class="node">
<title>Material</title>
<polygon fill="#8dd3c7" stroke="black" points="524.92,-122 521.92,-126 500.92,-126 497.92,-122 461.08,-122 461.08,-86 524.92,-86 524.92,-122"/>
<text text-anchor="middle" x="493" y="-99.8" font-family="Times,serif" font-size="14.00">Material</text>
</g>
<!-- MaterialModule -->
<g id="node2" class="node">
<title>MaterialModule</title>
<polygon fill="#8dd3c7" stroke="black" points="546.47,-187 543.47,-191 522.47,-191 519.47,-187 439.53,-187 439.53,-151 546.47,-151 546.47,-187"/>
<text text-anchor="middle" x="493" y="-164.8" font-family="Times,serif" font-size="14.00">MaterialModule</text>
</g>
<!-- Material&#45;&gt;MaterialModule -->
<g id="edge1" class="edge">
<title>Material&#45;&gt;MaterialModule</title>
<path fill="none" stroke="black" d="M463.64,-122.11C463.64,-122.11 463.64,-140.99 463.64,-140.99"/>
<polygon fill="black" stroke="black" points="460.14,-140.99 463.64,-150.99 467.14,-140.99 460.14,-140.99"/>
</g>
<!-- Material&#45;&gt;MaterialModule -->
<g id="edge2" class="edge">
<title>Material&#45;&gt;MaterialModule</title>
<path fill="none" stroke="black" d="M465.99,-122.11C465.99,-122.11 465.99,-140.99 465.99,-140.99"/>
<polygon fill="black" stroke="black" points="462.49,-140.99 465.99,-150.99 469.49,-140.99 462.49,-140.99"/>
</g>
<!-- Material&#45;&gt;MaterialModule -->
<g id="edge3" class="edge">
<title>Material&#45;&gt;MaterialModule</title>
<path fill="none" stroke="black" d="M468.34,-122.11C468.34,-122.11 468.34,-140.99 468.34,-140.99"/>
<polygon fill="black" stroke="black" points="464.84,-140.99 468.34,-150.99 471.84,-140.99 464.84,-140.99"/>
</g>
<!-- Material&#45;&gt;MaterialModule -->
<g id="edge4" class="edge">
<title>Material&#45;&gt;MaterialModule</title>
<path fill="none" stroke="black" d="M470.69,-122.11C470.69,-122.11 470.69,-140.99 470.69,-140.99"/>
<polygon fill="black" stroke="black" points="467.19,-140.99 470.69,-150.99 474.19,-140.99 467.19,-140.99"/>
</g>
<!-- Material&#45;&gt;MaterialModule -->
<g id="edge5" class="edge">
<title>Material&#45;&gt;MaterialModule</title>
<path fill="none" stroke="black" d="M473.03,-122.11C473.03,-122.11 473.03,-140.99 473.03,-140.99"/>
<polygon fill="black" stroke="black" points="469.53,-140.99 473.03,-150.99 476.53,-140.99 469.53,-140.99"/>
</g>
<!-- Material&#45;&gt;MaterialModule -->
<g id="edge6" class="edge">
<title>Material&#45;&gt;MaterialModule</title>
<path fill="none" stroke="black" d="M475.38,-122.11C475.38,-122.11 475.38,-140.99 475.38,-140.99"/>
<polygon fill="black" stroke="black" points="471.88,-140.99 475.38,-150.99 478.88,-140.99 471.88,-140.99"/>
</g>
<!-- Material&#45;&gt;MaterialModule -->
<g id="edge7" class="edge">
<title>Material&#45;&gt;MaterialModule</title>
<path fill="none" stroke="black" d="M477.73,-122.11C477.73,-122.11 477.73,-140.99 477.73,-140.99"/>
<polygon fill="black" stroke="black" points="474.23,-140.99 477.73,-150.99 481.23,-140.99 474.23,-140.99"/>
</g>
<!-- Material&#45;&gt;MaterialModule -->
<g id="edge8" class="edge">
<title>Material&#45;&gt;MaterialModule</title>
<path fill="none" stroke="black" d="M480.08,-122.11C480.08,-122.11 480.08,-140.99 480.08,-140.99"/>
<polygon fill="black" stroke="black" points="476.58,-140.99 480.08,-150.99 483.58,-140.99 476.58,-140.99"/>
</g>
<!-- Material&#45;&gt;MaterialModule -->
<g id="edge9" class="edge">
<title>Material&#45;&gt;MaterialModule</title>
<path fill="none" stroke="black" d="M482.43,-122.11C482.43,-122.11 482.43,-140.99 482.43,-140.99"/>
<polygon fill="black" stroke="black" points="478.93,-140.99 482.43,-150.99 485.93,-140.99 478.93,-140.99"/>
</g>
<!-- Material&#45;&gt;MaterialModule -->
<g id="edge10" class="edge">
<title>Material&#45;&gt;MaterialModule</title>
<path fill="none" stroke="black" d="M484.78,-122.11C484.78,-122.11 484.78,-140.99 484.78,-140.99"/>
<polygon fill="black" stroke="black" points="481.28,-140.99 484.78,-150.99 488.28,-140.99 481.28,-140.99"/>
</g>
<!-- Material&#45;&gt;MaterialModule -->
<g id="edge11" class="edge">
<title>Material&#45;&gt;MaterialModule</title>
<path fill="none" stroke="black" d="M487.13,-122.11C487.13,-122.11 487.13,-140.99 487.13,-140.99"/>
<polygon fill="black" stroke="black" points="483.63,-140.99 487.13,-150.99 490.63,-140.99 483.63,-140.99"/>
</g>
<!-- Material&#45;&gt;MaterialModule -->
<g id="edge12" class="edge">
<title>Material&#45;&gt;MaterialModule</title>
<path fill="none" stroke="black" d="M489.48,-122.11C489.48,-122.11 489.48,-140.99 489.48,-140.99"/>
<polygon fill="black" stroke="black" points="485.98,-140.99 489.48,-150.99 492.98,-140.99 485.98,-140.99"/>
</g>
<!-- Material&#45;&gt;MaterialModule -->
<g id="edge13" class="edge">
<title>Material&#45;&gt;MaterialModule</title>
<path fill="none" stroke="black" d="M491.83,-122.11C491.83,-122.11 491.83,-140.99 491.83,-140.99"/>
<polygon fill="black" stroke="black" points="488.33,-140.99 491.83,-150.99 495.33,-140.99 488.33,-140.99"/>
</g>
<!-- Material&#45;&gt;MaterialModule -->
<g id="edge14" class="edge">
<title>Material&#45;&gt;MaterialModule</title>
<path fill="none" stroke="black" d="M494.17,-122.11C494.17,-122.11 494.17,-140.99 494.17,-140.99"/>
<polygon fill="black" stroke="black" points="490.67,-140.99 494.17,-150.99 497.67,-140.99 490.67,-140.99"/>
</g>
<!-- Material&#45;&gt;MaterialModule -->
<g id="edge15" class="edge">
<title>Material&#45;&gt;MaterialModule</title>
<path fill="none" stroke="black" d="M496.52,-122.11C496.52,-122.11 496.52,-140.99 496.52,-140.99"/>
<polygon fill="black" stroke="black" points="493.02,-140.99 496.52,-150.99 500.02,-140.99 493.02,-140.99"/>
</g>
<!-- Material&#45;&gt;MaterialModule -->
<g id="edge16" class="edge">
<title>Material&#45;&gt;MaterialModule</title>
<path fill="none" stroke="black" d="M498.87,-122.11C498.87,-122.11 498.87,-140.99 498.87,-140.99"/>
<polygon fill="black" stroke="black" points="495.37,-140.99 498.87,-150.99 502.37,-140.99 495.37,-140.99"/>
</g>
<!-- Material&#45;&gt;MaterialModule -->
<g id="edge17" class="edge">
<title>Material&#45;&gt;MaterialModule</title>
<path fill="none" stroke="black" d="M501.22,-122.11C501.22,-122.11 501.22,-140.99 501.22,-140.99"/>
<polygon fill="black" stroke="black" points="497.72,-140.99 501.22,-150.99 504.72,-140.99 497.72,-140.99"/>
</g>
<!-- Material&#45;&gt;MaterialModule -->
<g id="edge18" class="edge">
<title>Material&#45;&gt;MaterialModule</title>
<path fill="none" stroke="black" d="M503.57,-122.11C503.57,-122.11 503.57,-140.99 503.57,-140.99"/>
<polygon fill="black" stroke="black" points="500.07,-140.99 503.57,-150.99 507.07,-140.99 500.07,-140.99"/>
</g>
<!-- Material&#45;&gt;MaterialModule -->
<g id="edge19" class="edge">
<title>Material&#45;&gt;MaterialModule</title>
<path fill="none" stroke="black" d="M505.92,-122.11C505.92,-122.11 505.92,-140.99 505.92,-140.99"/>
<polygon fill="black" stroke="black" points="502.42,-140.99 505.92,-150.99 509.42,-140.99 502.42,-140.99"/>
</g>
<!-- Material&#45;&gt;MaterialModule -->
<g id="edge20" class="edge">
<title>Material&#45;&gt;MaterialModule</title>
<path fill="none" stroke="black" d="M508.27,-122.11C508.27,-122.11 508.27,-140.99 508.27,-140.99"/>
<polygon fill="black" stroke="black" points="504.77,-140.99 508.27,-150.99 511.77,-140.99 504.77,-140.99"/>
</g>
<!-- Material&#45;&gt;MaterialModule -->
<g id="edge21" class="edge">
<title>Material&#45;&gt;MaterialModule</title>
<path fill="none" stroke="black" d="M510.62,-122.11C510.62,-122.11 510.62,-140.99 510.62,-140.99"/>
<polygon fill="black" stroke="black" points="507.12,-140.99 510.62,-150.99 514.12,-140.99 507.12,-140.99"/>
</g>
<!-- Material&#45;&gt;MaterialModule -->
<g id="edge22" class="edge">
<title>Material&#45;&gt;MaterialModule</title>
<path fill="none" stroke="black" d="M512.97,-122.11C512.97,-122.11 512.97,-140.99 512.97,-140.99"/>
<polygon fill="black" stroke="black" points="509.47,-140.99 512.97,-150.99 516.47,-140.99 509.47,-140.99"/>
</g>
<!-- Material&#45;&gt;MaterialModule -->
<g id="edge23" class="edge">
<title>Material&#45;&gt;MaterialModule</title>
<path fill="none" stroke="black" d="M515.31,-122.11C515.31,-122.11 515.31,-140.99 515.31,-140.99"/>
<polygon fill="black" stroke="black" points="511.81,-140.99 515.31,-150.99 518.81,-140.99 511.81,-140.99"/>
</g>
<!-- Material&#45;&gt;MaterialModule -->
<g id="edge24" class="edge">
<title>Material&#45;&gt;MaterialModule</title>
<path fill="none" stroke="black" d="M517.66,-122.11C517.66,-122.11 517.66,-140.99 517.66,-140.99"/>
<polygon fill="black" stroke="black" points="514.16,-140.99 517.66,-150.99 521.16,-140.99 514.16,-140.99"/>
</g>
<!-- Material&#45;&gt;MaterialModule -->
<g id="edge25" class="edge">
<title>Material&#45;&gt;MaterialModule</title>
<path fill="none" stroke="black" d="M520.01,-122.11C520.01,-122.11 520.01,-140.99 520.01,-140.99"/>
<polygon fill="black" stroke="black" points="516.51,-140.99 520.01,-150.99 523.51,-140.99 516.51,-140.99"/>
</g>
<!-- Material&#45;&gt;MaterialModule -->
<g id="edge26" class="edge">
<title>Material&#45;&gt;MaterialModule</title>
<path fill="none" stroke="black" d="M522.36,-122.11C522.36,-122.11 522.36,-140.99 522.36,-140.99"/>
<polygon fill="black" stroke="black" points="518.86,-140.99 522.36,-150.99 525.86,-140.99 518.86,-140.99"/>
</g>
<!-- Material.FormControl  -->
<g id="node3" class="node">
<title>Material.FormControl </title>
<polygon fill="#fb8072" stroke="black" points="868.53,-252 725.47,-252 725.47,-216 868.53,-216 868.53,-252"/>
<text text-anchor="middle" x="797" y="-229.8" font-family="Times,serif" font-size="14.00">Material.FormControl </text>
</g>
<!-- MaterialModule&#45;&gt;Material.FormControl  -->
<g id="edge27" class="edge">
<title>MaterialModule&#45;&gt;Material.FormControl </title>
<path fill="none" stroke="black" stroke-dasharray="5,2" d="M546.65,-163C633.92,-163 797,-163 797,-163 797,-163 797,-205.72 797,-205.72"/>
<polygon fill="black" stroke="black" points="793.5,-205.72 797,-215.72 800.5,-205.72 793.5,-205.72"/>
</g>
<!-- Material.FormGroup  -->
<g id="node4" class="node">
<title>Material.FormGroup </title>
<polygon fill="#fb8072" stroke="black" points="707.02,-252 570.98,-252 570.98,-216 707.02,-216 707.02,-252"/>
<text text-anchor="middle" x="639" y="-229.8" font-family="Times,serif" font-size="14.00">Material.FormGroup </text>
</g>
<!-- MaterialModule&#45;&gt;Material.FormGroup  -->
<g id="edge28" class="edge">
<title>MaterialModule&#45;&gt;Material.FormGroup </title>
<path fill="none" stroke="black" stroke-dasharray="5,2" d="M546.54,-175C588.2,-175 639,-175 639,-175 639,-175 639,-205.98 639,-205.98"/>
<polygon fill="black" stroke="black" points="635.5,-205.98 639,-215.98 642.5,-205.98 635.5,-205.98"/>
</g>
<!-- Material.MatTree  -->
<g id="node5" class="node">
<title>Material.MatTree </title>
<polygon fill="#fb8072" stroke="black" points="552.11,-252 433.89,-252 433.89,-216 552.11,-216 552.11,-252"/>
<text text-anchor="middle" x="493" y="-229.8" font-family="Times,serif" font-size="14.00">Material.MatTree </text>
</g>
<!-- MaterialModule&#45;&gt;Material.MatTree  -->
<g id="edge29" class="edge">
<title>MaterialModule&#45;&gt;Material.MatTree </title>
<path fill="none" stroke="black" stroke-dasharray="5,2" d="M493,-187.11C493,-187.11 493,-205.99 493,-205.99"/>
<polygon fill="black" stroke="black" points="489.5,-205.99 493,-215.99 496.5,-205.99 489.5,-205.99"/>
</g>
<!-- Material.MatTreeFlatDataSource  -->
<g id="node6" class="node">
<title>Material.MatTreeFlatDataSource </title>
<polygon fill="#fb8072" stroke="black" points="415.69,-252 210.31,-252 210.31,-216 415.69,-216 415.69,-252"/>
<text text-anchor="middle" x="313" y="-229.8" font-family="Times,serif" font-size="14.00">Material.MatTreeFlatDataSource </text>
</g>
<!-- MaterialModule&#45;&gt;Material.MatTreeFlatDataSource  -->
<g id="edge30" class="edge">
<title>MaterialModule&#45;&gt;Material.MatTreeFlatDataSource </title>
<path fill="none" stroke="black" stroke-dasharray="5,2" d="M439.48,-175C386.42,-175 313,-175 313,-175 313,-175 313,-205.98 313,-205.98"/>
<polygon fill="black" stroke="black" points="309.5,-205.98 313,-215.98 316.5,-205.98 309.5,-205.98"/>
</g>
<!-- Material.MatTreeFlattener  -->
<g id="node7" class="node">
<title>Material.MatTreeFlattener </title>
<polygon fill="#fb8072" stroke="black" points="192.37,-252 23.63,-252 23.63,-216 192.37,-216 192.37,-252"/>
<text text-anchor="middle" x="108" y="-229.8" font-family="Times,serif" font-size="14.00">Material.MatTreeFlattener </text>
</g>
<!-- MaterialModule&#45;&gt;Material.MatTreeFlattener  -->
<g id="edge31" class="edge">
<title>MaterialModule&#45;&gt;Material.MatTreeFlattener </title>
<path fill="none" stroke="black" stroke-dasharray="5,2" d="M439.47,-163C333.68,-163 108,-163 108,-163 108,-163 108,-205.72 108,-205.72"/>
<polygon fill="black" stroke="black" points="104.5,-205.72 108,-215.72 111.5,-205.72 104.5,-205.72"/>
</g>
</g>
</svg>
