<?xml version="1.0" encoding="UTF-8" standalone="no"?>
<!DOCTYPE svg PUBLIC "-//W3C//DTD SVG 1.1//EN"
 "http://www.w3.org/Graphics/SVG/1.1/DTD/svg11.dtd">
<!-- Generated by graphviz version 2.47.0 (20210316.0004)
 -->
<!-- Title: dependencies Pages: 1 -->
<svg width="1372pt" height="284pt"
 viewBox="0.00 0.00 1372.00 284.00" xmlns="http://www.w3.org/2000/svg" xmlns:xlink="http://www.w3.org/1999/xlink">
<g id="graph0" class="graph" transform="scale(1 1) rotate(0) translate(4 280)">
<title>dependencies</title>
<polygon fill="white" stroke="transparent" points="-4,4 -4,-280 1368,-280 1368,4 -4,4"/>
<text text-anchor="start" x="661.01" y="-42.4" font-family="sans-serif" font-weight="bold" font-size="14.00">Legend</text>
<polygon fill="#ffffb3" stroke="transparent" points="448,-10 448,-30 468,-30 468,-10 448,-10"/>
<text text-anchor="start" x="471.63" y="-15.4" font-family="sans-serif" font-size="14.00"> &#160;Declarations</text>
<polygon fill="#8dd3c7" stroke="transparent" points="561,-10 561,-30 581,-30 581,-10 561,-10"/>
<text text-anchor="start" x="584.73" y="-15.4" font-family="sans-serif" font-size="14.00"> &#160;Module</text>
<polygon fill="#80b1d3" stroke="transparent" points="647,-10 647,-30 667,-30 667,-10 647,-10"/>
<text text-anchor="start" x="670.78" y="-15.4" font-family="sans-serif" font-size="14.00"> &#160;Bootstrap</text>
<polygon fill="#fdb462" stroke="transparent" points="744,-10 744,-30 764,-30 764,-10 744,-10"/>
<text text-anchor="start" x="767.67" y="-15.4" font-family="sans-serif" font-size="14.00"> &#160;Providers</text>
<polygon fill="#fb8072" stroke="transparent" points="840,-10 840,-30 860,-30 860,-10 840,-10"/>
<text text-anchor="start" x="863.73" y="-15.4" font-family="sans-serif" font-size="14.00"> &#160;Exports</text>
<g id="clust1" class="cluster">
<title>cluster_AppModule</title>
<polygon fill="none" stroke="black" stroke-dasharray="1,5" points="8,-70 8,-268 1356,-268 1356,-70 8,-70"/>
</g>
<g id="clust2" class="cluster">
<title>cluster_AppModule_declarations</title>
<polygon fill="none" stroke="black" points="168,-78 168,-130 1348,-130 1348,-78 168,-78"/>
</g>
<g id="clust11" class="cluster">
<title>cluster_AppModule_imports</title>
<polygon fill="none" stroke="black" points="16,-78 16,-130 160,-130 160,-78 16,-78"/>
</g>
<g id="clust13" class="cluster">
<title>cluster_AppModule_bootstrap</title>
<polygon fill="none" stroke="black" points="623,-208 623,-260 747,-260 747,-208 623,-208"/>
</g>
<!-- AppComponent -->
<g id="node1" class="node">
<title>AppComponent</title>
<polygon fill="#ffffb3" stroke="black" points="1339.94,-122 1234.06,-122 1234.06,-86 1339.94,-86 1339.94,-122"/>
<text text-anchor="middle" x="1287" y="-99.8" font-family="Times,serif" font-size="14.00">AppComponent</text>
</g>
<!-- AppModule -->
<g id="node9" class="node">
<title>AppModule</title>
<polygon fill="#8dd3c7" stroke="black" points="726.66,-187 723.66,-191 702.66,-191 699.66,-187 643.34,-187 643.34,-151 726.66,-151 726.66,-187"/>
<text text-anchor="middle" x="685" y="-164.8" font-family="Times,serif" font-size="14.00">AppModule</text>
</g>
<!-- AppComponent&#45;&gt;AppModule -->
<g id="edge1" class="edge">
<title>AppComponent&#45;&gt;AppModule</title>
<path fill="none" stroke="black" d="M1287,-122.01C1287,-144.49 1287,-180 1287,-180 1287,-180 736.85,-180 736.85,-180"/>
<polygon fill="black" stroke="black" points="736.85,-176.5 726.85,-180 736.85,-183.5 736.85,-176.5"/>
</g>
<!-- AsAdminComponent -->
<g id="node2" class="node">
<title>AsAdminComponent</title>
<polygon fill="#ffffb3" stroke="black" points="1215.77,-122 1080.23,-122 1080.23,-86 1215.77,-86 1215.77,-122"/>
<text text-anchor="middle" x="1148" y="-99.8" font-family="Times,serif" font-size="14.00">AsAdminComponent</text>
</g>
<!-- AsAdminComponent&#45;&gt;AppModule -->
<g id="edge2" class="edge">
<title>AsAdminComponent&#45;&gt;AppModule</title>
<path fill="none" stroke="black" d="M1148,-122.13C1148,-142.57 1148,-173 1148,-173 1148,-173 736.9,-173 736.9,-173"/>
<polygon fill="black" stroke="black" points="736.9,-169.5 726.9,-173 736.9,-176.5 736.9,-169.5"/>
</g>
<!-- AsGuestComponent -->
<g id="node3" class="node">
<title>AsGuestComponent</title>
<polygon fill="#ffffb3" stroke="black" points="1061.54,-122 932.46,-122 932.46,-86 1061.54,-86 1061.54,-122"/>
<text text-anchor="middle" x="997" y="-99.8" font-family="Times,serif" font-size="14.00">AsGuestComponent</text>
</g>
<!-- AsGuestComponent&#45;&gt;AppModule -->
<g id="edge3" class="edge">
<title>AsGuestComponent&#45;&gt;AppModule</title>
<path fill="none" stroke="black" d="M997,-122.27C997,-140.56 997,-166 997,-166 997,-166 736.75,-166 736.75,-166"/>
<polygon fill="black" stroke="black" points="736.75,-162.5 726.75,-166 736.75,-169.5 736.75,-162.5"/>
</g>
<!-- AsStudentComponent -->
<g id="node4" class="node">
<title>AsStudentComponent</title>
<polygon fill="#ffffb3" stroke="black" points="913.66,-122 774.34,-122 774.34,-86 913.66,-86 913.66,-122"/>
<text text-anchor="middle" x="844" y="-99.8" font-family="Times,serif" font-size="14.00">AsStudentComponent</text>
</g>
<!-- AsStudentComponent&#45;&gt;AppModule -->
<g id="edge4" class="edge">
<title>AsStudentComponent&#45;&gt;AppModule</title>
<path fill="none" stroke="black" d="M844,-122.01C844,-138.05 844,-159 844,-159 844,-159 736.78,-159 736.78,-159"/>
<polygon fill="black" stroke="black" points="736.78,-155.5 726.78,-159 736.78,-162.5 736.78,-155.5"/>
</g>
<!-- AsTeacherComponent -->
<g id="node5" class="node">
<title>AsTeacherComponent</title>
<polygon fill="#ffffb3" stroke="black" points="755.96,-122 614.04,-122 614.04,-86 755.96,-86 755.96,-122"/>
<text text-anchor="middle" x="685" y="-99.8" font-family="Times,serif" font-size="14.00">AsTeacherComponent</text>
</g>
<!-- AsTeacherComponent&#45;&gt;AppModule -->
<g id="edge5" class="edge">
<title>AsTeacherComponent&#45;&gt;AppModule</title>
<path fill="none" stroke="black" d="M685,-122.11C685,-122.11 685,-140.99 685,-140.99"/>
<polygon fill="black" stroke="black" points="681.5,-140.99 685,-150.99 688.5,-140.99 681.5,-140.99"/>
</g>
<!-- CalendarComponent -->
<g id="node6" class="node">
<title>CalendarComponent</title>
<polygon fill="#ffffb3" stroke="black" points="595.86,-122 464.14,-122 464.14,-86 595.86,-86 595.86,-122"/>
<text text-anchor="middle" x="530" y="-99.8" font-family="Times,serif" font-size="14.00">CalendarComponent</text>
</g>
<!-- CalendarComponent&#45;&gt;AppModule -->
<g id="edge6" class="edge">
<title>CalendarComponent&#45;&gt;AppModule</title>
<path fill="none" stroke="black" d="M530,-122.01C530,-138.05 530,-159 530,-159 530,-159 633.05,-159 633.05,-159"/>
<polygon fill="black" stroke="black" points="633.05,-162.5 643.05,-159 633.05,-155.5 633.05,-162.5"/>
</g>
<!-- EditComponent -->
<g id="node7" class="node">
<title>EditComponent</title>
<polygon fill="#ffffb3" stroke="black" points="446.17,-122 341.83,-122 341.83,-86 446.17,-86 446.17,-122"/>
<text text-anchor="middle" x="394" y="-99.8" font-family="Times,serif" font-size="14.00">EditComponent</text>
</g>
<!-- EditComponent&#45;&gt;AppModule -->
<g id="edge7" class="edge">
<title>EditComponent&#45;&gt;AppModule</title>
<path fill="none" stroke="black" d="M394,-122.27C394,-140.56 394,-166 394,-166 394,-166 633.31,-166 633.31,-166"/>
<polygon fill="black" stroke="black" points="633.31,-169.5 643.31,-166 633.31,-162.5 633.31,-169.5"/>
</g>
<!-- NewCourseComponent -->
<g id="node8" class="node">
<title>NewCourseComponent</title>
<polygon fill="#ffffb3" stroke="black" points="323.92,-122 176.08,-122 176.08,-86 323.92,-86 323.92,-122"/>
<text text-anchor="middle" x="250" y="-99.8" font-family="Times,serif" font-size="14.00">NewCourseComponent</text>
</g>
<!-- NewCourseComponent&#45;&gt;AppModule -->
<g id="edge8" class="edge">
<title>NewCourseComponent&#45;&gt;AppModule</title>
<path fill="none" stroke="black" d="M250,-122.13C250,-142.57 250,-173 250,-173 250,-173 633.29,-173 633.29,-173"/>
<polygon fill="black" stroke="black" points="633.29,-176.5 643.29,-173 633.29,-169.5 633.29,-176.5"/>
</g>
<!-- AppComponent  -->
<g id="node11" class="node">
<title>AppComponent </title>
<polygon fill="#80b1d3" stroke="black" points="739.44,-252 630.56,-252 630.56,-216 739.44,-216 739.44,-252"/>
<text text-anchor="middle" x="685" y="-229.8" font-family="Times,serif" font-size="14.00">AppComponent </text>
</g>
<!-- AppModule&#45;&gt;AppComponent  -->
<g id="edge10" class="edge">
<title>AppModule&#45;&gt;AppComponent </title>
<path fill="none" stroke="black" stroke-dasharray="1,5" d="M685,-187.11C685,-187.11 685,-205.99 685,-205.99"/>
<polygon fill="black" stroke="black" points="681.5,-205.99 685,-215.99 688.5,-205.99 681.5,-205.99"/>
</g>
<!-- AppRoutingModule -->
<g id="node10" class="node">
<title>AppRoutingModule</title>
<polygon fill="#8dd3c7" stroke="black" points="152.27,-122 149.27,-126 128.27,-126 125.27,-122 23.73,-122 23.73,-86 152.27,-86 152.27,-122"/>
<text text-anchor="middle" x="88" y="-99.8" font-family="Times,serif" font-size="14.00">AppRoutingModule</text>
</g>
<!-- AppRoutingModule&#45;&gt;AppModule -->
<g id="edge9" class="edge">
<title>AppRoutingModule&#45;&gt;AppModule</title>
<path fill="none" stroke="black" d="M88,-122.01C88,-144.49 88,-180 88,-180 88,-180 633.02,-180 633.02,-180"/>
<polygon fill="black" stroke="black" points="633.02,-183.5 643.02,-180 633.02,-176.5 633.02,-183.5"/>
</g>
</g>
</svg>
